HIERARCHY
ROOT Hips
{
	OFFSET -0.179506 -22.333345 2.821913
	CHANNELS 6 Xposition Yposition Zposition Zrotation Yrotation Xrotation 
	JOINT LeftUpLeg
	{
		OFFSET 6.951974 -9.140623 -0.681533
		CHANNELS 3 Zrotation Yrotation Xrotation
		JOINT LeftLeg
		{
			OFFSET 3.427654 -37.519855 -0.449580
			CHANNELS 3 Zrotation Yrotation Xrotation
			JOINT LeftFoot
			{
				OFFSET -1.359570 -39.796059 -4.369333
				CHANNELS 3 Zrotation Yrotation Xrotation
				JOINT LeftToe
				{
					OFFSET 2.635814 -5.579078 11.928840
					CHANNELS 3 Zrotation Yrotation Xrotation
					End Site
					{
						OFFSET 0.000000 0.000000 0.000000
					}
				}
			}
		}
	}
	JOINT RightUpLeg
	{
		OFFSET -6.767048 -9.052170 -0.431982
		CHANNELS 3 Zrotation Yrotation Xrotation
		JOINT RightLeg
		{
			OFFSET -3.829005 -38.256897 -0.885003
			CHANNELS 3 Zrotation Yrotation Xrotation
			JOINT RightFoot
			{
				OFFSET 1.577377 -39.841461 -4.231180
				CHANNELS 3 Zrotation Yrotation Xrotation
				JOINT RightToe
				{
					OFFSET -2.537174 -4.814398 12.334795
					CHANNELS 3 Zrotation Yrotation Xrotation
					End Site
					{
						OFFSET 0.000000 0.000000 0.000000
					}
				}
			}
		}
	}
	JOINT Spine
	{
		OFFSET -0.253288 10.896323 -2.669631
		CHANNELS 3 Zrotation Yrotation Xrotation
		JOINT Spine1
		{
			OFFSET 0.548704 13.518043 0.109247
			CHANNELS 3 Zrotation Yrotation Xrotation
			JOINT Spine2
			{
				OFFSET 0.145701 5.292222 2.542457
				CHANNELS 3 Zrotation Yrotation Xrotation
				JOINT Neck
				{
					OFFSET -0.277840 21.387037 -4.285703
					CHANNELS 3 Zrotation Yrotation Xrotation
					JOINT Head
					{
						OFFSET 0.515184 6.496960 5.134897
						CHANNELS 3 Zrotation Yrotation Xrotation
						End Site
						{
							OFFSET 0.000000 0.000000 0.000000
						}
					}
				}
				JOINT LeftShoulder
				{
					OFFSET 7.884473 12.174932 -3.408961
					CHANNELS 3 Zrotation Yrotation Xrotation
					JOINT LeftArm
					{
						OFFSET 9.097692 3.046888 -0.886815
						CHANNELS 3 Zrotation Yrotation Xrotation
						JOINT LeftForeArm
						{
							OFFSET 25.961220 -1.277207 -2.745643
							CHANNELS 3 Zrotation Yrotation Xrotation
							JOINT LeftHand
							{
								OFFSET 24.923361 0.898606 -0.117091
								CHANNELS 3 Zrotation Yrotation Xrotation
								End Site
								{
									OFFSET 0.000000 0.000000 0.000000
								}
							}
						}
					}
				}
				JOINT RightShoulder
				{
					OFFSET -8.175920 11.883285 -3.861528
					CHANNELS 3 Zrotation Yrotation Xrotation
					JOINT RightArm
					{
						OFFSET -9.601238 3.255117 -0.914307
						CHANNELS 3 Zrotation Yrotation Xrotation
						JOINT RightForeArm
						{
							OFFSET -25.374195 -1.332924 -2.140099
							CHANNELS 3 Zrotation Yrotation Xrotation
							JOINT RightHand
							{
								OFFSET -25.529810 0.777228 -0.555919
								CHANNELS 3 Zrotation Yrotation Xrotation
								End Site
								{
									OFFSET 0.000000 0.000000 0.000000
								}
							}
						}
					}
				}
			}
		}
	}
}
MOTION
Frames: 7
Frame Time: 0.033333
-4.709222 -14.037297 99.501312 177.840767 -0.227327 86.086333 3.745348 2.393345 11.154738 -3.230967 -2.259562 -5.503435 4.225278 8.665374 -7.151635 nan nan nan -2.911370 -2.352814 9.520660 4.584679 -2.241075 -4.901402 5.329278 -3.484405 -3.879799 nan nan nan -0.125499 1.130088 5.767744 1.126459 -2.237521 0.836153 0.527740 -0.659096 2.197093 -1.463232 0.824324 0.357587 0.318903 -3.309073 3.913829 -24.225648 3.588847 4.910487 -61.165491 -5.857591 10.504782 7.640260 -25.596876 13.248447 -7.777380 -10.157058 -9.137636 24.995360 0.983164 4.173974 59.391008 4.824758 12.172575 -10.204920 19.897523 -4.061190 5.598918 5.647974 -12.138540 
-4.708529 -14.042576 99.498413 177.817364 -0.221799 86.114259 3.769303 2.425996 11.121518 -3.255332 -2.272444 -5.494479 4.189076 8.661340 -7.140080 nan nan nan -2.926533 -2.398949 9.485283 4.593566 -2.192449 -4.897246 5.350559 -3.453211 -3.866659 nan nan nan -0.106239 1.125949 5.739418 1.121354 -2.234492 0.837307 0.521428 -0.653520 2.196510 -1.453517 0.819863 0.372992 0.323813 -3.309289 3.910679 -24.219539 3.593406 4.901426 -61.168822 -5.861533 10.507302 7.638997 -25.582188 13.272473 -7.790177 -10.155847 -9.144649 25.003970 0.976671 4.173657 59.408204 4.834311 12.167355 -10.254214 19.892800 -4.065840 5.623177 5.602984 -12.138323 
-4.711539 -14.072711 99.485558 177.640728 -0.202049 86.230279 3.824596 2.568105 10.971690 -3.330883 -2.245292 -5.443491 4.116375 8.681068 -7.114984 nan nan nan -3.014265 -2.807907 9.295652 4.652219 -1.876546 -4.865646 5.384610 -3.233435 -3.785204 nan nan nan -0.026057 1.173142 5.621039 1.093926 -2.210133 0.858067 0.476728 -0.601961 2.193466 -1.440509 0.791834 0.407192 0.321388 -3.300370 3.872468 -24.206628 3.610919 4.846910 -61.175525 -5.842264 10.487501 7.611348 -25.552964 13.369251 -7.852921 -10.092668 -9.219755 25.006210 0.976474 4.190716 59.445087 4.919903 12.106537 -10.340408 19.860351 -4.081734 5.692490 5.418529 -12.124818 
-4.710801 -14.074574 99.480499 177.626480 -0.188687 86.240703 3.836018 2.583071 10.953092 -3.330665 -2.239773 -5.436356 4.101944 8.689766 -7.117684 nan nan nan -3.014666 -2.894730 9.275496 4.659998 -1.825408 -4.852407 5.386674 -3.213695 -3.764884 nan nan nan -0.008282 1.181219 5.599756 1.088060 -2.211687 0.868806 0.469071 -0.596320 2.197729 -1.437384 0.786605 0.403449 0.320380 -3.290477 3.860218 -24.213118 3.605927 4.845089 -61.169894 -5.835192 10.482468 7.609113 -25.569917 13.379488 -7.845434 -10.073818 -9.226552 25.003062 0.979612 4.193977 59.433490 4.921203 12.100069 -10.328579 19.878069 -4.076903 5.687504 5.387747 -12.126134 
-4.706357 -14.074777 99.476646 177.611276 -0.176656 86.253582 3.865226 2.596954 10.933547 -3.352003 -2.225228 -5.443741 4.085321 8.700743 -7.118470 nan nan nan -3.012067 -2.983837 9.249398 4.666865 -1.754277 -4.838854 5.392601 -3.191299 -3.729762 nan nan nan 0.005526 1.190676 5.567226 1.082335 -2.212430 0.887140 0.463775 -0.591782 2.205251 -1.427026 0.777596 0.390419 0.318320 -3.268920 3.839510 -24.224414 3.597165 4.850262 -61.172678 -5.833119 10.474220 7.594724 -25.578861 13.329784 -7.773490 -10.056454 -9.294956 24.994069 0.977711 4.200271 59.419919 4.920054 12.094615 -10.312727 19.878077 -4.078408 5.694322 5.308088 -12.149299 
-4.700289 -14.084072 99.460915 177.599805 -0.121018 86.376534 3.959669 2.619281 10.781232 -3.417485 -2.148253 -5.482428 4.032714 8.716233 -7.127959 nan nan nan -2.946545 -3.178029 9.056645 4.634256 -1.499919 -4.763485 5.351951 -3.224416 -3.758202 nan nan nan 0.067817 1.188081 5.404869 1.084517 -2.200855 0.910820 0.470109 -0.595159 2.265814 -1.407097 0.760499 0.199117 0.232103 -3.144666 3.778011 -24.180662 3.611360 4.814341 -61.353666 -5.909032 10.433695 7.458983 -25.383044 12.813489 -7.186351 -10.086000 -10.026940 24.925245 0.924492 4.159634 59.444288 4.946083 12.164087 -10.313606 19.744516 -4.075511 5.825202 4.839291 -12.309051 
-4.688066 -14.113247 99.460838 177.684399 -0.070684 86.478024 4.034170 2.708818 10.567516 -3.401249 -2.174644 -5.372678 3.980439 8.614960 -7.213566 nan nan nan -2.840845 -3.252918 8.900921 4.555766 -1.335028 -4.690572 5.324026 -3.324713 -3.783723 nan nan nan 0.097692 1.136663 5.293254 1.117161 -2.211601 0.899554 0.464178 -0.616959 2.336598 -1.378757 0.656335 -0.026511 0.087636 -3.191750 3.854582 -24.187160 3.620128 4.746731 -61.401376 -5.996604 10.434083 7.242842 -25.170764 12.503840 -6.569075 -10.123096 -10.433971 24.992761 0.867594 4.055481 59.379704 4.953709 12.262902 -10.342931 19.653393 -4.074788 5.806785 4.536407 -12.226017 
